<svg width="163" height="159" viewBox="0 0 163 159" fill="none" xmlns="http://www.w3.org/2000/svg">
<path d="M72.484 105.064C71.7966 105.081 71.1128 104.962 70.4737 104.715C69.8347 104.467 69.2536 104.096 68.7656 103.623L44.5703 80.0217C43.6145 79.0894 43.0775 77.8249 43.0775 76.5063C43.0775 75.1878 43.6145 73.9233 44.5703 72.9909C45.5261 72.0586 46.8224 71.5348 48.1741 71.5348C49.5258 71.5348 50.8222 72.0586 51.778 72.9909L72.3822 93.0895L111.12 55.3767C111.593 54.9151 112.155 54.5489 112.774 54.299C113.392 54.0492 114.055 53.9206 114.724 53.9206C115.393 53.9206 116.056 54.0492 116.674 54.299C117.293 54.5489 117.855 54.9151 118.328 55.3767C118.801 55.8384 119.176 56.3864 119.433 56.9896C119.689 57.5928 119.821 58.2392 119.821 58.8921C119.821 59.545 119.689 60.1915 119.433 60.7946C119.176 61.3978 118.801 61.9459 118.328 62.4075L76.0751 103.623C75.1201 104.547 73.8292 105.065 72.484 105.064Z" fill="#262626"/>
<path d="M81.5 149.062C67.5662 149.042 53.9438 145.041 42.3157 137.552C30.6876 130.063 21.5633 119.416 16.07 106.925C10.5767 94.4338 8.95504 80.6467 11.4055 67.2667C13.8559 53.8867 20.271 41.5 29.8582 31.637C39.4455 21.774 51.7848 14.8668 65.3518 11.7688C78.9187 8.67067 93.1189 9.51744 106.198 14.2045C119.277 18.8915 130.662 27.2134 138.946 38.1421C147.23 49.0708 152.051 62.1274 152.812 75.6989C152.889 77.0131 152.428 78.3033 151.53 79.2861C150.632 80.2689 149.372 80.8641 148.024 80.9409C147.353 80.9812 146.68 80.8915 146.045 80.6768C145.409 80.4622 144.824 80.1269 144.322 79.6904C143.82 79.2539 143.412 78.7247 143.12 78.1335C142.829 77.5422 142.661 76.9005 142.625 76.2455C141.934 63.7887 137.255 51.8571 129.247 42.1307C121.239 32.4043 110.305 25.373 97.9844 22.027C85.6642 18.6809 72.5784 19.1885 60.5695 23.4785C48.5607 27.7684 38.2337 35.6244 31.0426 45.9405C23.8516 56.2566 20.1587 68.5129 20.4841 80.9839C20.8094 93.4548 25.1365 105.512 32.8561 115.458C40.5757 125.404 51.299 132.738 63.516 136.426C75.733 140.115 88.8283 139.973 100.958 136.02C108.658 133.52 115.766 129.541 121.864 124.319C127.961 119.096 132.925 112.735 136.462 105.611C136.73 104.988 137.126 104.425 137.625 103.956C138.124 103.488 138.716 103.123 139.365 102.886C140.013 102.648 140.704 102.541 141.396 102.573C142.088 102.605 142.766 102.774 143.389 103.07C144.012 103.366 144.566 103.783 145.018 104.295C145.47 104.807 145.81 105.404 146.017 106.049C146.225 106.694 146.295 107.373 146.224 108.045C146.153 108.717 145.943 109.368 145.605 109.958C141.489 118.278 135.703 125.708 128.59 131.806C121.476 137.904 113.18 142.547 104.193 145.46C96.8765 147.844 89.2137 149.061 81.5 149.062Z" fill="#262626"/>
</svg>
