<svg width="163" height="159" viewBox="0 0 163 159" fill="none" xmlns="http://www.w3.org/2000/svg">
<path d="M142.625 92.75H135.833V46.375C135.833 41.1038 133.687 36.0485 129.866 32.3213C126.045 28.594 120.862 26.5 115.458 26.5H47.5417C42.1379 26.5 36.9555 28.594 33.1344 32.3213C29.3134 36.0485 27.1667 41.1038 27.1667 46.375V92.75H20.375C18.5738 92.75 16.8463 93.448 15.5726 94.6904C14.2989 95.9328 13.5834 97.6179 13.5834 99.375V112.625C13.5834 117.896 15.73 122.951 19.5511 126.679C23.3721 130.406 28.5546 132.5 33.9584 132.5H129.042C134.445 132.5 139.628 130.406 143.449 126.679C147.27 122.951 149.417 117.896 149.417 112.625V99.375C149.417 97.6179 148.701 95.9328 147.427 94.6904C146.154 93.448 144.426 92.75 142.625 92.75ZM40.75 46.375C40.75 44.6179 41.4656 42.9328 42.7393 41.6904C44.013 40.448 45.7404 39.75 47.5417 39.75H115.458C117.26 39.75 118.987 40.448 120.261 41.6904C121.535 42.9328 122.25 44.6179 122.25 46.375V92.75H40.75V46.375ZM135.833 112.625C135.833 114.382 135.118 116.067 133.844 117.31C132.57 118.552 130.843 119.25 129.042 119.25H33.9584C32.1571 119.25 30.4296 118.552 29.1559 117.31C27.8823 116.067 27.1667 114.382 27.1667 112.625V106H135.833V112.625Z" fill="#262626"/>
</svg>
