<svg width="163" height="159" viewBox="0 0 163 159" fill="none" xmlns="http://www.w3.org/2000/svg">
<path d="M86.4978 29.2919C86.4978 35.9004 80.9966 41.2666 74.2219 41.2666C70.0475 41.2666 66.9516 40.0425 64.2211 34.9563H70.4523C70.1837 33.7931 72.0446 25.7287 64.2551 22.3357L64.4249 22.1038C66.768 19.0729 70.3338 17.3338 74.2219 17.3338C80.9966 17.3338 86.4978 22.7001 86.4978 29.2919ZM37.3533 151.972C18.711 151.972 2.94723 146.728 1.9076 146.376L3.02517 143.247C3.41807 143.38 42.6858 156.421 69.8574 141.195C86.7951 131.702 96.8366 134.903 105.694 137.729C116.313 141.112 118.175 140.332 124.222 137.666C131.914 134.269 141.49 130.043 157.633 146.348L155.189 148.648C140.712 134.026 133.038 137.408 125.621 140.684C105.439 149.582 99.2651 128.535 71.5483 144.067C60.8307 150.073 48.5706 151.972 37.3533 151.972ZM54.6906 130.853C24.2342 130.853 2.22256 123.623 1.91422 123.52L3.01855 120.387C3.44642 120.531 46.3137 134.576 94.983 122.929C116.095 117.776 144.879 111.996 162.187 125.748L160.041 128.317C143.907 115.497 114.862 121.492 95.7922 126.145C81.277 129.621 67.2624 130.853 54.6906 130.853ZM69.1892 111.618C19.6827 98.2108 2.36536 105.162 2.19608 105.233L0.813293 102.208C1.53627 101.89 19.0791 94.6096 70.098 108.427C79.0618 110.853 91.5922 112.226 109.087 101.19C109.76 100.795 124.644 92.3187 142.671 101.313C145.431 102.691 152.672 104.258 160.323 100.327L161.905 103.257C154.191 107.221 145.723 106.557 141.125 104.262C124.756 96.0968 111.019 103.922 110.881 104.002C95.0764 113.974 82.2005 115.141 69.1892 111.618Z" fill="#262626"/>
<path d="M60.6555 89.3476C57.9559 93.9685 55.9015 98.2416 54.56 101.223C40.2388 98.1373 21.7111 95.4026 7.12006 97.3472C13.9628 82.176 35.5096 43.4529 60.6555 89.3476ZM120.779 94.2004C104.39 96.137 99.8584 106.804 81.8965 106.804C74.5961 106.804 71.5769 105.075 57.9559 101.968C65.1041 86.3332 90.4538 39.2294 119.318 85.3229C120.541 87.2696 120.146 88.8323 120.779 94.2004ZM160.782 96.3535L158.744 97.3969C153.211 100.213 147.178 99.8517 144.21 98.3576C137.219 94.8796 129.905 93.5649 124.005 93.9354C123.631 90.4241 123.394 88.2544 123.241 86.9129C123.037 85.0744 123.665 83.2526 124.973 81.911C133.938 72.7354 146.18 66.889 158.659 80.0229C158.659 80.0229 162.395 86.4988 160.782 96.3535ZM22.1967 31.6501C22.1967 26.7925 27.2268 23.3985 31.965 25.3148C32.8128 19.5209 37.9181 15.0808 44.0552 15.0808C50.3954 15.0808 55.6109 19.8278 56.2192 25.8743C60.7713 22.9763 67.0563 26.1085 67.0563 31.6501C51.0224 31.6501 38.2573 31.6501 22.1967 31.6501ZM113.403 51.7747C113.403 47.646 117.678 44.7611 121.705 46.3899C122.426 41.4654 126.765 37.6914 131.982 37.6914C137.371 37.6914 141.804 41.7262 142.321 46.8654C146.19 44.4022 151.532 47.0645 151.532 51.7747C137.904 51.7747 127.054 51.7747 113.403 51.7747Z" fill="#262626"/>
<path d="M86.9223 63.2451L86.7186 63.4769C80.4193 65.5804 74.7992 70.3338 70.0279 75.8988H63.0666C63.0666 72.6857 65.7321 70.0522 69.0263 70.0522C69.8583 70.0522 70.6393 70.2344 71.3692 70.516C72.0824 65.5969 76.429 61.8207 81.6416 61.8207C83.5774 61.8207 85.377 62.3341 86.9223 63.2451Z" fill="#262626"/>
<path d="M75.9257 7.02747H72.5299V13.8595H75.9257V7.02747Z" fill="#262626"/>
<path d="M67.7862 15.1022L64.2828 9.18439L61.3421 10.8409L64.8455 16.7587L67.7862 15.1022Z" fill="#262626"/>
<path d="M61.3739 38.4495L59.6764 35.5806L53.6089 38.9967L55.3065 41.8657L61.3739 38.4495Z" fill="#262626"/>
<path d="M67.7901 43.4917L64.8489 41.8359L61.3471 47.7546L64.2882 49.4104L67.7901 43.4917Z" fill="#262626"/>
<path d="M75.9257 44.7336H72.5299V51.5673H75.9257V44.7336Z" fill="#262626"/>
<path d="M87.1203 47.7508L83.6183 41.834L80.6775 43.4903L84.1794 49.407L87.1203 47.7508Z" fill="#262626"/>
<path d="M94.8512 38.9964L88.7836 35.5805L87.0861 38.4495L93.1537 41.8654L94.8512 38.9964Z" fill="#262626"/>
<path d="M97.0597 27.6412H90.0541V30.9537H97.0597V27.6412Z" fill="#262626"/>
<path d="M94.8452 19.6001L93.1476 16.7312L87.0802 20.1473L88.7777 23.0162L94.8452 19.6001Z" fill="#262626"/>
<path d="M87.1152 10.8377L84.174 9.18188L80.6722 15.1006L83.6133 16.7564L87.1152 10.8377Z" fill="#262626"/>
</svg>
